<svg xmlns="http://www.w3.org/2000/svg" width="158" height="37" viewBox="0 0 158 37">
    <g fill-rule="evenodd">
        <path d="M7.667 28.518V29H2v-2.97l8.026-4.497 1.105 1.857 2.045-4.703-5.218-.632 1.105 1.858L2 23.869V7h5.667v5.97c.886-.305 1.84-.47 2.833-.47 4.694 0 8.5 3.694 8.5 8.25S15.194 29 10.5 29c-.067 0-.291 0-.591-.022-.232-.017-.509-.046-.8-.093-.271-.045-.54-.103-.77-.162-.341-.09-.6-.179-.672-.205zm19.438.368c-.05-.008-.119-.02-.23-.041-.234-.046-.608-.13-1.035-.27-.14-.046-.268-.088-.54-.199-.273-.11-.521-.226-.788-.368-.115-.06-.237-.128-.356-.2-.089-.054-.177-.108-.26-.163-.159-.102-.303-.202-.416-.286-.07-.05-.136-.1-.199-.15-.047-.036-.092-.073-.135-.108-.1-.08-.197-.163-.265-.223l-.1-.09-.089-.082-.087-.082-.125-.124c-.073-.074-.147-.15-.212-.22-.066-.07-.124-.136-.17-.188-.126-.145-.252-.298-.374-.46-.064-.083-.153-.205-.265-.368l-.08-.12 6.647-3.838 1.105 1.914 2.045-4.845-5.218-.652 1.105 1.915-6.55 3.778-.058-.167c-.058-.172-.113-.347-.142-.451-.056-.2-.115-.463-.15-.63-.08-.398-.121-.766-.142-1.062-.019-.279-.02-.492-.021-.606 0-.464.037-.92.11-1.363.045-.284.104-.564.177-.836.105-.392.237-.77.39-1.13.387-.91.919-1.71 1.503-2.355 1.33-1.466 2.74-2.065 3.487-2.332.886-.314 1.84-.484 2.833-.484 4.694 0 8.5 3.806 8.5 8.5 0 1.433-.354 2.782-.98 3.967H30.2v4.363c-.55.111-1.118.17-1.7.17-.067 0-.291.001-.591-.02-.118-.007-.307-.025-.473-.046-.165-.02-.306-.044-.33-.048zM38 7h5.556v5.5H48V18h-4.444v11H38V7zm11 0h5.556v5.5H59V18h-4.444v11H49V7zm12 5h5.442v.483l.164-.058c.183-.064.375-.122.574-.172.155-.039.317-.08.482-.11.098-.017.2-.037.302-.052.122-.017.247-.036.374-.048.127-.012.257-.024.39-.03.141-.008.286-.013.435-.013.11 0 .225.003.337.007.08.003.174.01.258.016.068.004.13.009.174.014.1.012.205.02.318.038.088.014.198.029.327.052.124.023.266.052.426.09.206.049.44.11.698.202.144.052.356.123.618.24.062.029.146.064.251.115l.139.068.09.046.126.067.075.04-2.16 5.273c-.122-.1-.306-.23-.539-.342-.106-.051-.222-.098-.347-.138-.127-.041-.265-.073-.41-.094-.172-.025-.354-.034-.545-.022-.135.008-.272.027-.414.058-.049.011-.098.024-.147.038-.063.018-.127.039-.191.063-.116.044-.234.096-.354.162-.069.038-.138.081-.209.128-.222.148-.461.363-.669.64-.129.171-.245.367-.339.586-.022.051-.043.105-.062.159-.05.14-.107.32-.147.606-.01.066-.018.16-.023.275l-.002.113V29H61V12z"/>
        <text font-family="Gilroy-Regular" font-size="31">
            <tspan x="73.08" y="28.04">credit</tspan>
        </text>
    </g>
</svg>
